<svg width="217" height="217" viewBox="0 0 217 217" fill="none" xmlns="http://www.w3.org/2000/svg">
<path d="M181.583 94.9362L192.451 101.455C193.121 101.857 193.676 102.425 194.061 103.105C194.447 103.785 194.649 104.553 194.649 105.334C194.649 106.116 194.447 106.884 194.061 107.563C193.676 108.243 193.121 108.812 192.451 109.213L108.499 159.584L24.5469 109.213C23.8764 108.812 23.3214 108.243 22.936 107.563C22.5507 106.884 22.3481 106.116 22.3481 105.334C22.3481 104.553 22.5507 103.785 22.936 103.105C23.3214 102.425 23.8764 101.857 24.5469 101.455L35.4149 94.9362L108.499 138.788L181.583 94.9362ZM181.583 137.432L192.451 143.951C193.121 144.352 193.676 144.921 194.061 145.601C194.447 146.28 194.649 147.048 194.649 147.83C194.649 148.611 194.447 149.379 194.061 150.059C193.676 150.739 193.121 151.307 192.451 151.709L113.155 199.286C111.749 200.131 110.139 200.577 108.499 200.577C106.858 200.577 105.249 200.131 103.842 199.286L24.5469 151.709C23.8764 151.307 23.3214 150.739 22.936 150.059C22.5507 149.379 22.3481 148.611 22.3481 147.83C22.3481 147.048 22.5507 146.28 22.936 145.601C23.3214 144.921 23.8764 144.352 24.5469 143.951L35.4149 137.432L108.499 181.284L181.583 137.432V137.432ZM113.146 11.8342L192.451 59.4115C193.121 59.8128 193.676 60.3812 194.061 61.061C194.447 61.7408 194.649 62.5089 194.649 63.2903C194.649 64.0718 194.447 64.8399 194.061 65.5197C193.676 66.1995 193.121 66.7678 192.451 67.1692L108.499 117.54L24.5469 67.1692C23.8764 66.7678 23.3214 66.1995 22.936 65.5197C22.5507 64.8399 22.3481 64.0718 22.3481 63.2903C22.3481 62.5089 22.5507 61.7408 22.936 61.061C23.3214 60.3812 23.8764 59.8128 24.5469 59.4115L103.842 11.8342C105.249 10.9893 106.858 10.543 108.499 10.543C110.139 10.543 111.749 10.9893 113.155 11.8342H113.146Z" fill="#626262"/>
</svg>
