<svg width="217" height="217" viewBox="0 0 217 217" fill="none" xmlns="http://www.w3.org/2000/svg">
<path fill-rule="evenodd" clip-rule="evenodd" d="M27.125 20.3438C27.125 18.5453 27.8395 16.8204 29.1112 15.5487C30.3829 14.277 32.1078 13.5625 33.9062 13.5625H183.094C184.892 13.5625 186.617 14.277 187.889 15.5487C189.161 16.8204 189.875 18.5453 189.875 20.3438C189.875 22.1422 189.161 23.8671 187.889 25.1388C186.617 26.4105 184.892 27.125 183.094 27.125H169.531V40.6875C169.534 52.2025 166.279 63.4834 160.143 73.227C154.006 82.9706 145.238 90.7793 134.852 95.7512C130.919 97.6364 128.844 100.864 128.844 103.753V113.247C128.844 116.136 130.932 119.364 134.852 121.249C145.238 126.221 154.006 134.029 160.143 143.773C166.279 153.517 169.534 164.798 169.531 176.312V189.875H183.094C184.892 189.875 186.617 190.589 187.889 191.861C189.161 193.133 189.875 194.858 189.875 196.656C189.875 198.455 189.161 200.18 187.889 201.451C186.617 202.723 184.892 203.438 183.094 203.438H33.9062C32.1078 203.438 30.3829 202.723 29.1112 201.451C27.8395 200.18 27.125 198.455 27.125 196.656C27.125 194.858 27.8395 193.133 29.1112 191.861C30.3829 190.589 32.1078 189.875 33.9062 189.875H47.4688V176.312C47.466 164.798 50.7208 153.517 56.8574 143.773C62.9939 134.029 71.7618 126.221 82.1481 121.249C86.0812 119.364 88.1562 116.136 88.1562 113.247V103.753C88.1562 100.864 86.0676 97.6364 82.1481 95.7512C71.7618 90.7793 62.9939 82.9706 56.8574 73.227C50.7208 63.4834 47.466 52.2025 47.4688 40.6875V27.125H33.9062C32.1078 27.125 30.3829 26.4105 29.1112 25.1388C27.8395 23.8671 27.125 22.1422 27.125 20.3438ZM61.0312 27.125V40.6875C61.0288 49.6444 63.5605 58.4193 68.334 65.9983C73.1075 73.5773 79.9278 79.651 88.0071 83.5179C95.2359 86.9899 101.719 94.2458 101.719 103.74V113.26C101.719 113.26 104.16 115.281 108.5 115.281C112.84 115.281 115.281 113.247 115.281 113.247V103.753C115.281 94.2458 121.764 86.9899 128.993 83.5179C137.072 79.651 143.893 73.5773 148.666 65.9983C153.439 58.4193 155.971 49.6444 155.969 40.6875V27.125H61.0312Z" fill="#626262"/>
</svg>
