<svg width="1308" height="663" viewBox="0 0 1308 663" fill="none" xmlns="http://www.w3.org/2000/svg">
<g clip-path="url(#clip0)">
<path d="M221.5 294.5H312C336.577 294.5 356.5 314.423 356.5 339V429.5H266C241.423 429.5 221.5 409.577 221.5 385V294.5Z" stroke="url(#paint0_linear)" stroke-width="39"/>
<path d="M129.5 202.5H285C326.145 202.5 359.5 235.855 359.5 277V432.5H204C162.855 432.5 129.5 399.145 129.5 358V202.5Z" stroke="#3D3C3C" stroke-width="51"/>
<path d="M445.379 409.503C440.99 405.513 435.936 403.385 431.015 401.257C430.35 400.991 429.552 400.725 428.754 400.326C424.498 398.597 419.843 396.07 418.114 391.415C416.784 388.223 417.715 383.967 419.976 381.972C422.769 379.711 423.833 378.913 427.823 379.578C430.217 379.977 438.995 380.509 439.394 393.543C439.394 394.075 439.926 394.607 440.591 394.607H452.295C453.359 394.607 454.157 393.676 454.024 392.745L453.891 391.415C453.891 391.149 453.891 390.883 453.891 390.484C453.093 382.903 450.034 374.923 443.783 369.869C437.266 364.682 427.424 362.953 419.444 365.214C411.996 367.342 406.809 371.864 404.282 378.514C401.622 385.563 401.888 393.41 405.213 399.927C407.873 405.513 412.528 409.37 417.848 412.296C423.035 415.222 429.286 416.818 433.941 420.542C439.793 425.33 440.724 434.241 436.069 440.359C432.079 445.546 421.439 444.349 418.513 438.763C417.316 436.236 416.518 433.177 416.518 430.517L416.385 428.788L416.252 427.059C416.119 425.862 415.188 424.931 413.991 424.931H403.617C402.553 424.931 401.622 425.862 401.489 426.926C401.356 427.591 401.223 428.522 401.223 429.453C401.09 430.384 401.09 431.581 401.09 432.645C401.09 433.31 401.09 433.842 401.09 434.374C401.489 440.891 404.149 446.876 409.07 451.93C413.326 456.319 420.109 458.846 427.956 458.846C428.222 458.846 428.488 458.846 428.754 458.846C432.079 458.846 435.404 458.314 438.33 457.25C458.147 450.334 459.344 422.537 445.379 409.503ZM528.889 410.035C528.889 408.439 528.889 406.71 528.889 405.114C528.756 402.188 528.623 398.996 528.49 396.336C528.224 393.942 528.091 391.548 528.091 389.154C527.825 381.839 524.766 375.189 520.377 370.933C515.456 366.278 508.008 363.751 500.427 364.283C493.511 364.682 487.526 367.608 483.802 372.13C478.083 379.312 477.551 387.691 477.285 396.336C477.152 406.311 477.152 416.419 477.817 426.394V426.527C477.95 428.921 478.083 431.315 478.216 433.576C478.349 441.024 481.142 447.94 485.531 452.196C489.92 456.452 496.57 458.979 503.486 458.979C504.151 458.979 504.816 458.979 505.481 458.846C512.264 458.447 518.382 455.521 521.973 450.999C527.692 443.95 528.756 435.571 528.889 426.926C528.889 424 528.889 421.074 528.889 418.68C528.889 417.882 528.889 416.951 528.889 415.887C528.889 414.025 528.889 412.03 528.889 410.7V410.035ZM513.594 428.522C513.328 435.704 511.599 440.226 508.54 442.354C505.747 444.083 501.624 444.349 498.831 442.753C496.304 441.423 494.708 439.029 493.777 435.172C492.447 429.852 492.314 422.67 492.314 416.951C492.314 416.153 492.314 415.222 492.181 414.158C492.181 412.961 492.181 411.631 492.181 410.833V410.7C492.181 404.981 492.181 399.927 492.314 394.607C492.58 387.425 494.176 382.903 497.368 380.908C498.831 379.844 500.826 379.312 502.688 379.312C504.284 379.312 505.747 379.711 507.077 380.376C509.604 381.839 511.2 384.233 512.131 388.09C513.461 393.277 513.594 400.592 513.594 406.311C513.594 407.508 513.594 408.971 513.461 410.7C513.594 412.163 513.594 413.759 513.594 415.488C513.594 419.744 513.594 424.665 513.594 428.522ZM601.746 371.997V367.475C601.746 366.145 600.815 365.081 599.485 365.081H576.343C570.624 365.081 565.304 365.081 563.176 365.081C562.112 365.081 561.181 365.081 560.25 365.081H556.526C555.196 365.081 554.265 366.145 554.265 367.475V455.787C554.265 456.984 555.196 458.048 556.526 458.048H560.649C561.314 458.048 562.112 458.048 562.91 458.048C563.575 458.048 564.24 458.048 564.905 458.048H565.038C565.171 458.048 565.437 458.048 565.703 458.048H567.432C569.56 458.048 570.757 454.457 570.757 452.595C570.624 450.999 570.624 427.99 570.624 424.133C570.757 422.936 570.757 421.606 570.757 420.276C570.757 418.946 570.757 417.749 570.757 416.419C570.757 416.419 570.757 416.419 570.89 416.419V416.685H584.988C585.254 416.685 585.653 416.685 585.919 416.685C586.85 416.818 587.781 416.685 588.579 416.685H592.835C594.165 416.685 595.096 415.621 595.096 414.291V404.05C595.096 402.853 594.165 401.124 592.835 401.124H574.481C573.683 400.991 572.885 400.991 571.954 400.991C571.688 400.991 571.289 400.991 570.89 400.858C570.89 400.592 570.89 400.326 570.89 400.06C570.757 395.272 570.757 390.484 570.757 385.829C570.757 384.1 570.89 382.371 570.89 380.775C570.89 380.642 570.89 380.642 570.89 380.642H599.485C600.815 380.642 601.746 379.711 601.746 378.381V375.056C601.879 373.992 601.879 373.061 601.746 371.997ZM665.708 365.081C664.777 364.948 664.112 364.948 663.314 364.948C663.048 364.948 662.915 364.948 662.649 364.948C656.93 364.948 651.078 364.948 645.492 365.081C643.763 365.081 642.034 365.081 640.305 365.081H628.202C627.67 365.081 627.271 365.081 626.872 365.081C625.409 365.081 624.079 365.081 623.015 365.081H618.493C617.429 365.081 616.631 366.012 616.631 367.076V378.248C616.631 379.312 617.429 380.11 618.493 380.11H620.089C620.222 380.11 620.355 380.11 620.621 380.243C621.02 380.376 621.552 380.376 622.084 380.376C624.345 380.509 626.473 380.509 628.734 380.509C630.064 380.509 631.261 380.509 632.591 380.642C632.99 380.642 633.522 380.642 634.054 380.642C634.586 380.642 635.251 380.642 635.916 380.642C635.916 380.775 635.916 381.041 635.783 381.307V381.44C635.783 387.691 635.783 394.341 635.916 400.06C636.049 405.779 636.049 421.606 636.049 434.374C636.049 442.088 636.049 448.871 636.182 451.93C636.182 453.26 635.916 455.787 635.916 456.186C635.916 457.25 636.847 458.048 637.911 458.048H650.679C651.743 458.048 652.541 457.25 652.541 456.186V380.376C654.669 380.376 657.196 380.376 659.59 380.243C661.718 380.243 663.58 380.243 664.91 380.243C665.442 380.243 666.24 380.243 666.905 380.11H669.166C670.23 380.11 671.028 379.312 671.028 378.248V367.076C671.028 366.012 670.23 365.081 669.166 365.081H666.107C665.974 365.081 665.841 365.081 665.708 365.081ZM732.628 409.503C728.239 405.513 723.185 403.385 718.264 401.257C717.599 400.991 716.801 400.725 716.003 400.326C711.747 398.597 707.092 396.07 705.363 391.415C704.033 388.223 704.964 383.967 707.225 381.972C710.018 379.711 711.082 378.913 715.072 379.578C717.466 379.977 726.244 380.509 726.643 393.543C726.643 394.075 727.175 394.607 727.84 394.607H739.544C740.608 394.607 741.406 393.676 741.273 392.745L741.14 391.415C741.14 391.149 741.14 390.883 741.14 390.484C740.342 382.903 737.283 374.923 731.032 369.869C724.515 364.682 714.673 362.953 706.693 365.214C699.245 367.342 694.058 371.864 691.531 378.514C688.871 385.563 689.137 393.41 692.462 399.927C695.122 405.513 699.777 409.37 705.097 412.296C710.284 415.222 716.535 416.818 721.19 420.542C727.042 425.33 727.973 434.241 723.318 440.359C719.328 445.546 708.688 444.349 705.762 438.763C704.565 436.236 703.767 433.177 703.767 430.517L703.634 428.788L703.501 427.059C703.368 425.862 702.437 424.931 701.24 424.931H690.866C689.802 424.931 688.871 425.862 688.738 426.926C688.605 427.591 688.472 428.522 688.472 429.453C688.339 430.384 688.339 431.581 688.339 432.645C688.339 433.31 688.339 433.842 688.339 434.374C688.738 440.891 691.398 446.876 696.319 451.93C700.575 456.319 707.358 458.846 715.205 458.846C715.471 458.846 715.737 458.846 716.003 458.846C719.328 458.846 722.653 458.314 725.579 457.25C745.396 450.334 746.593 422.537 732.628 409.503ZM816.138 410.035C816.138 408.439 816.138 406.71 816.138 405.114C816.005 402.188 815.872 398.996 815.739 396.336C815.473 393.942 815.34 391.548 815.34 389.154C815.074 381.839 812.015 375.189 807.626 370.933C802.705 366.278 795.257 363.751 787.676 364.283C780.76 364.682 774.775 367.608 771.051 372.13C765.332 379.312 764.8 387.691 764.534 396.336C764.401 406.311 764.401 416.419 765.066 426.394V426.527C765.199 428.921 765.332 431.315 765.465 433.576C765.598 441.024 768.391 447.94 772.78 452.196C777.169 456.452 783.819 458.979 790.735 458.979C791.4 458.979 792.065 458.979 792.73 458.846C799.513 458.447 805.631 455.521 809.222 450.999C814.941 443.95 816.005 435.571 816.138 426.926C816.138 424 816.138 421.074 816.138 418.68C816.138 417.882 816.138 416.951 816.138 415.887C816.138 414.025 816.138 412.03 816.138 410.7V410.035ZM800.843 428.522C800.577 435.704 798.848 440.226 795.789 442.354C792.996 444.083 788.873 444.349 786.08 442.753C783.553 441.423 781.957 439.029 781.026 435.172C779.696 429.852 779.563 422.67 779.563 416.951C779.563 416.153 779.563 415.222 779.43 414.158C779.43 412.961 779.43 411.631 779.43 410.833V410.7C779.43 404.981 779.43 399.927 779.563 394.607C779.829 387.425 781.425 382.903 784.617 380.908C786.08 379.844 788.075 379.312 789.937 379.312C791.533 379.312 792.996 379.711 794.326 380.376C796.853 381.839 798.449 384.233 799.38 388.09C800.71 393.277 800.843 400.592 800.843 406.311C800.843 407.508 800.843 408.971 800.71 410.7C800.843 412.163 800.843 413.759 800.843 415.488C800.843 419.744 800.843 424.665 800.843 428.522ZM893.118 414.025C893.118 412.429 893.118 410.833 893.118 409.37C893.118 405.247 893.118 401.257 892.985 397.267C892.985 389.42 892.985 381.174 892.852 372.928C892.852 372.13 892.852 371.332 892.852 370.534V367.475C892.852 366.145 891.788 365.081 890.458 365.081H886.601C886.069 365.081 885.537 365.081 885.005 365.081H884.739C883.941 365.081 883.01 365.081 882.212 365.081C882.079 365.081 882.079 365.081 881.946 365.081H879.685C878.355 365.081 877.291 366.145 877.291 367.475V369.869C877.291 370.002 877.291 370.002 877.291 370.135C877.158 371.332 877.158 372.529 877.158 373.726C877.158 378.78 877.158 385.962 877.158 391.016C877.158 393.809 877.158 396.336 877.158 398.198C877.158 399.129 877.158 399.927 877.158 400.459C877.291 400.725 877.291 400.991 877.291 401.257C877.291 402.587 877.291 403.917 877.291 405.247C877.291 408.306 877.291 411.365 877.291 414.424C877.291 415.621 877.291 416.818 877.291 418.015V427.99H877.424C877.424 428.788 877.424 429.453 877.291 430.251C877.291 430.65 877.291 431.182 877.291 431.581C877.158 434.773 877.158 437.034 875.695 439.162C873.966 441.689 870.774 443.019 867.183 442.886C863.326 442.886 860.001 441.024 858.272 438.231C856.543 435.438 856.41 431.847 856.41 427.99H856.543V367.475C856.543 366.145 855.479 365.081 854.149 365.081H850.026C849.361 365.081 848.696 365.081 848.031 365.081C847.632 365.081 847.233 365.081 846.834 365.081H843.376C842.046 365.081 840.982 366.145 840.982 367.475V369.736C840.982 370.002 840.849 370.268 840.849 370.401C840.716 371.199 840.716 375.721 840.849 399.129C840.849 402.188 840.982 404.848 840.982 406.577C840.982 408.971 840.849 411.498 840.716 414.158C840.583 417.483 840.45 420.941 840.583 424.133C840.583 425.197 840.583 426.394 840.583 427.591C840.716 435.305 840.849 443.285 846.302 450.334C850.026 454.989 856.277 458.181 863.459 458.979C864.656 459.112 865.853 459.245 867.183 459.245C872.769 459.245 878.089 457.782 882.212 454.989C889.527 450.201 893.517 441.024 893.251 429.054C893.118 424.399 893.118 419.079 893.118 414.025ZM974.69 454.59C974.557 454.457 974.557 454.191 974.557 454.058C974.557 453.792 974.158 453.526 973.493 451.93C971.498 447.674 964.848 432.911 962.055 426.261C960.592 422.537 959.129 418.813 957.666 415.222C957.4 414.557 957.267 413.892 957.001 413.227C962.055 411.897 966.311 408.705 969.237 403.784C972.961 397.533 974.025 389.154 971.897 382.105C968.971 372.263 959.395 365.081 949.021 365.081C948.888 365.081 948.888 365.081 948.755 365.081C944.499 365.214 939.711 365.214 934.923 365.214V365.081H929.337C928.14 365.081 926.81 365.081 925.613 365.081C925.48 365.081 925.347 365.081 925.347 365.081H920.426C919.894 365.081 919.495 365.613 919.495 366.145V455.255C919.495 456.851 920.692 458.048 922.155 458.048H928.805C929.071 458.048 929.337 458.048 929.603 458.048H929.869C930.002 458.048 930.268 458.048 930.401 458.048H932.263C933.726 458.048 934.923 456.851 934.923 455.255V415.355C935.189 415.355 935.322 415.355 935.588 415.355C937.45 415.222 939.445 415.222 940.908 415.222C940.908 415.355 941.041 415.621 941.041 415.754C941.174 415.887 941.307 416.286 941.44 416.552C941.573 416.951 941.573 417.217 941.706 417.483C942.371 419.079 942.903 420.542 943.568 422.138C944.898 425.862 946.361 429.719 947.957 433.443C948.888 436.103 949.952 438.63 951.016 441.157C951.149 441.423 951.415 441.822 951.548 442.221L957.666 457.383C957.799 457.782 958.198 458.048 958.597 458.048H960.725C960.725 458.048 963.119 458.048 965.646 458.048H967.907C968.572 458.048 969.104 458.048 969.503 458.048H969.636H974.69C975.488 458.048 975.887 457.383 975.621 456.718L974.69 454.59ZM949.686 399.794C944.366 400.06 939.977 400.193 934.923 399.927V380.775C936.253 380.775 937.45 380.775 938.647 380.642C943.302 380.642 947.558 380.509 951.814 381.44C952.346 381.44 952.878 381.706 953.41 381.972C956.735 383.701 957.4 387.558 957.533 389.154C957.799 393.144 956.07 397.001 953.41 398.863C952.745 399.262 951.548 399.794 951.016 399.794H949.686ZM1046.67 425.596H1041.61C1041.08 425.596 1040.41 425.596 1039.62 425.596H1034.03C1032.43 425.596 1031.24 426.793 1031.24 428.389C1031.24 429.719 1031.24 431.182 1031.24 432.645C1031.24 434.64 1031.64 436.901 1030.44 438.763C1026.32 445.679 1014.35 443.684 1013.42 435.305C1013.28 434.374 1013.15 433.576 1013.02 432.645C1012.88 431.315 1012.62 429.852 1012.62 428.655C1012.62 416.552 1012.62 404.715 1012.75 390.617C1012.75 389.553 1012.88 388.489 1013.02 387.425C1013.15 387.026 1013.15 386.494 1013.15 386.095C1013.68 382.637 1015.54 380.376 1019 379.445C1022.46 378.381 1028.58 378.78 1030.31 384.233C1030.71 385.297 1030.84 386.494 1030.97 387.824C1030.97 388.489 1030.97 389.021 1030.97 389.686C1031.1 390.75 1031.1 391.814 1031.24 392.878V395.139C1031.24 396.735 1032.43 397.932 1034.03 397.932H1038.82C1039.08 397.932 1039.35 397.932 1039.75 397.932H1044.01C1045.47 397.932 1046.8 396.735 1046.8 395.139V391.947C1046.8 391.282 1046.8 390.883 1046.8 390.484C1046.8 390.085 1046.8 389.819 1046.8 389.553C1047.2 385.696 1046.67 381.972 1045.07 378.248C1042.14 371.598 1037.75 367.475 1031.5 365.48C1027.51 364.283 1023.39 363.884 1018.47 364.416C1012.35 364.948 1007.03 367.741 1002.64 372.662C999.184 376.519 997.322 381.706 997.322 387.957V389.553C997.189 396.203 997.056 402.986 997.056 409.769C996.923 417.483 996.923 424.266 997.056 430.384C997.189 437.433 999.051 443.817 1002.64 449.27C1003.44 450.6 1004.5 451.93 1005.57 452.994C1014.48 461.772 1031.24 460.442 1040.15 452.329C1041.48 451.132 1042.68 449.802 1043.74 448.339C1046.4 444.216 1046.93 439.827 1047.2 435.039C1047.33 432.512 1048 425.596 1046.67 425.596ZM1121.3 450.068V445.147C1121.3 443.684 1119.97 442.487 1118.5 442.487H1116.38C1116.11 442.487 1115.98 442.487 1115.71 442.354C1114.51 442.354 1113.32 442.221 1112.12 442.221H1111.59C1108.26 442.221 1104.81 442.221 1101.48 442.221C1097.89 442.221 1094.3 442.221 1090.71 442.221C1089.51 442.221 1088.45 442.088 1087.38 442.088C1087.38 442.088 1087.38 441.955 1087.25 441.955V416.685H1108.93C1110.39 416.685 1111.59 415.355 1111.59 413.892V410.7C1111.72 409.769 1111.72 408.838 1111.59 407.907V403.784C1111.59 402.321 1110.39 401.124 1108.93 401.124H1092.3C1091.77 400.991 1091.24 400.991 1090.57 400.991C1090.18 400.991 1089.78 400.991 1089.38 400.991C1088.71 400.991 1088.05 400.991 1087.52 400.991C1087.38 400.06 1087.38 399.129 1087.38 398.331C1087.38 396.602 1087.38 394.873 1087.52 393.144C1087.52 389.952 1087.65 386.627 1087.52 383.302C1087.52 382.105 1087.52 381.307 1087.52 380.642H1115.58C1117.04 380.642 1118.37 379.445 1118.37 377.982V373.327C1118.37 372.795 1118.37 372.396 1118.37 371.864V367.874C1118.37 366.278 1117.04 365.081 1115.58 365.081H1085.79C1083.13 365.081 1080.47 365.081 1077.81 365.081C1077.67 365.081 1077.54 365.081 1077.41 365.081H1074.48C1073.02 365.081 1071.82 366.278 1071.82 367.874V455.388C1071.82 456.851 1073.02 458.048 1074.48 458.048H1077.14C1077.27 458.048 1077.41 458.048 1077.54 458.048C1079 458.048 1082.46 458.048 1086.72 458.048C1094.03 458.048 1104.01 458.048 1110.39 458.048H1118.5C1119.97 458.048 1121.3 456.851 1121.3 455.388V450.201C1121.3 450.201 1121.3 450.201 1121.3 450.068ZM1197.16 395.937C1197.03 391.415 1196.49 386.893 1196.09 382.504L1195.96 382.105C1194.9 372.396 1187.98 365.879 1178.01 365.347C1177.34 365.214 1176.68 365.214 1176.14 365.214C1172.02 365.214 1167.77 365.214 1163.78 365.214C1162.45 365.214 1161.12 365.214 1159.92 365.081H1156.06C1155.26 365.081 1154.6 365.081 1153.8 365.081H1153.53C1152.74 365.081 1151.81 365.081 1151.01 365.081H1147.28C1145.69 365.081 1144.36 366.544 1144.36 368.14V380.775C1144.09 386.76 1143.96 393.011 1143.96 399.129C1143.69 414.291 1143.43 433.443 1143.56 437.965C1143.56 443.285 1143.56 447.408 1143.56 451.265C1143.56 452.861 1143.83 454.058 1144.36 454.989C1144.36 456.718 1145.69 458.048 1147.28 458.048H1148.88C1149.15 458.048 1149.28 458.048 1149.54 458.048C1150.61 458.048 1151.67 458.048 1152.74 458.048C1155.93 458.048 1158.99 458.048 1162.31 458.048C1165.11 457.915 1168.03 458.048 1170.82 458.048C1172.55 458.048 1174.42 458.048 1176.28 458.048C1176.94 458.048 1177.61 458.048 1178.27 458.048C1186.78 457.915 1192.37 453.659 1195.03 445.28C1195.43 443.95 1195.96 442.354 1196.09 440.758C1196.36 437.965 1196.49 435.039 1196.63 432.246L1196.76 431.315C1197.03 427.325 1196.89 423.202 1196.76 419.212C1196.76 417.882 1196.76 416.286 1196.76 414.823C1196.76 414.291 1196.76 411.897 1196.89 409.37C1197.03 404.715 1197.16 398.73 1197.16 395.937ZM1180.67 398.331C1180.67 399.395 1180.53 400.592 1180.53 401.789C1180.53 403.917 1180.53 406.178 1180.4 408.439C1180.4 410.434 1180.4 412.429 1180.27 414.424C1180.27 420.01 1180.27 419.611 1180.13 423.867C1180.13 424.798 1180.27 425.862 1180.27 426.926C1180.4 429.32 1180.8 435.571 1180.4 437.699C1179.87 441.423 1178.01 442.753 1176.01 442.886C1171.22 443.285 1165.24 443.285 1159.12 442.886L1159.92 388.356C1159.92 387.691 1159.92 387.026 1159.92 386.361C1159.92 383.967 1159.92 381.972 1160.05 381.44C1160.05 380.908 1160.05 380.642 1160.18 380.376C1160.32 380.376 1160.58 380.376 1160.85 380.376C1164.17 380.509 1167.1 380.243 1170.03 380.376C1170.69 380.376 1171.22 380.376 1171.89 380.376C1174.42 380.509 1176.68 380.509 1178.01 381.839C1180.27 383.701 1180.53 389.154 1180.67 392.479L1180.8 393.011C1180.8 394.74 1180.8 396.469 1180.67 398.331Z" fill="#3D3C3C"/>
</g>
<defs>
<linearGradient id="paint0_linear" x1="202" y1="275" x2="359.5" y2="434.5" gradientUnits="userSpaceOnUse">
<stop stop-color="#59CCC1"/>
<stop offset="1" stop-color="#18BD0B"/>
</linearGradient>
<clipPath id="clip0">
<rect width="1308" height="663" fill="white"/>
</clipPath>
</defs>
</svg>
