<svg xmlns="http://www.w3.org/2000/svg" width="35" height="33.665" viewBox="0 0 35 33.665">
  <defs>
    <style>
      .cls-1 {
        fill: #9b9494;
      }
    </style>
  </defs>
  <path id="Path_1" data-name="Path 1" class="cls-1" d="M29.531,0H5.469A5.374,5.374,0,0,0,0,5.26V16.832a1.342,1.342,0,0,0,1.367,1.315H8.2v14.2a1.365,1.365,0,0,0,1.933,1.2L21.6,28.533l11.466,5.013A1.365,1.365,0,0,0,35,32.348V5.26A5.374,5.374,0,0,0,29.531,0ZM8.2,15.517H2.734V5.26A2.687,2.687,0,0,1,5.469,2.63,2.687,2.687,0,0,1,8.2,5.26ZM32.266,30.306l-10.1-4.415a1.416,1.416,0,0,0-1.132,0l-10.1,4.415V5.26A5.074,5.074,0,0,0,10.2,2.63h19.33a2.687,2.687,0,0,1,2.734,2.63Z"/>
</svg>
