<svg xmlns="http://www.w3.org/2000/svg" width="33" height="33" viewBox="0 0 33 33">
    <path id="prefix__battery_1_" d="M43.428 2.2h-6.74V0H24.313v2.2h-6.74C15.6 2.2 14 3.055 14 4.105v26.99C14 32.145 15.6 33 17.572 33h25.856C45.4 33 47 32.145 47 31.095V4.105c0-1.05-1.6-1.905-3.572-1.905zM26.375 1.1h8.25v1.1h-8.25zm18.563 29.995c0 .444-.676.805-1.51.805H17.572c-.833 0-1.51-.361-1.51-.805V4.105c0-.444.677-.805 1.51-.805h25.856c.833 0 1.51.361 1.51.805z" data-name="battery (1)" transform="translate(-14)" style="fill:#979393"/>
</svg>
