<svg xmlns="http://www.w3.org/2000/svg" width="38" height="38" viewBox="0 0 38 38">
    <path id="prefix__Shape" d="M33.085 23.225c5.276-1.776 5.385-8.339 5.385-8.613a.684.684 0 0 0-.129-.4c-.154-.227-3.957-5.468-9.233-3.686a13.484 13.484 0 0 0-4.028 2.25A14.493 14.493 0 0 0 25.9 8.1c0-5.755-5.977-7.892-6.228-7.979a.621.621 0 0 0-.412 0c-.251.087-6.228 2.223-6.228 8.012a14.583 14.583 0 0 0 .824 4.674 13.516 13.516 0 0 0-4.041-2.283C4.549 8.742.753 13.984.6 14.211a.684.684 0 0 0-.129.4c0 .274.109 6.837 5.385 8.613a12.986 12.986 0 0 0 4.536.634 13.74 13.74 0 0 0-3.314 3.272c-3.262 4.674.367 10.015.528 10.256a.587.587 0 0 0 .328.247 10.946 10.946 0 0 0 3.172.454c4.568 0 7.078-2.838 8.364-7.345 1.319 4.534 3.815 7.345 8.364 7.345a10.947 10.947 0 0 0 3.166-.46.587.587 0 0 0 .328-.247c.161-.227 3.79-5.6.528-10.256a13.971 13.971 0 0 0-3.307-3.272 13.054 13.054 0 0 0 4.536-.628zM19.47 1.478c.978.4 5.147 2.37 5.147 6.63 0 3.853-2.1 7.852-4.427 10.83-.116-.047-.077.6-.077-7.491a.644.644 0 1 0-1.287 0V18.4a26.3 26.3 0 0 0-2.619-3.412 15.176 15.176 0 0 1-1.885-6.884c0-4.246 4.169-6.223 5.147-6.63zM6.254 21.956c-3.893-1.335-4.42-6.043-4.5-7.131.643-.841 3.758-4.347 7.663-3.031 3.539 1.2 6.55 4.494 8.557 7.725-.064.087.489.227-6.885-2.25a.639.639 0 0 0-.788.435.674.674 0 0 0 .389.834l6.376 2.15a24.355 24.355 0 0 0-3.946 1.542 13.727 13.727 0 0 1-6.865-.274zm10.192 12.239c-2.4 3.439-6.891 2.5-7.914 2.23-.566-.928-2.818-5.074-.412-8.506 2.162-3.085 6.151-5.081 9.722-6.056.058.093.354-.387-4.189 6.1a.684.684 0 0 0 .179.883.627.627 0 0 0 .863-.109L18.64 23.1a26.937 26.937 0 0 0 .187 4.347 14.969 14.969 0 0 1-2.381 6.744zm3.024-12.733a.668.668 0 1 1 .643-.668.656.656 0 0 1-.643.668zm11.35 6.457c2.406 3.432.154 7.578-.412 8.506-1.023.267-5.514 1.209-7.914-2.23-2.188-3.125-2.747-7.618-2.574-11.464.1 0-.27-.514 4.3 6.009a.637.637 0 0 0 .6.326.645.645 0 0 0 .549-.408.688.688 0 0 0-.1-.692l-3.933-5.636a24.7 24.7 0 0 0 4.092 1.182 14.354 14.354 0 0 1 5.392 4.407zm-9.42-7c0-.114-.483.093 6.846-2.384a.674.674 0 0 0 .389-.834.639.639 0 0 0-.788-.435l-6.376 2.123a26.56 26.56 0 0 0 2.316-3.652 14.3 14.3 0 0 1 5.72-3.973c3.86-1.335 6.994 2.19 7.663 3.031-.064 1.1-.579 5.816-4.5 7.131-3.507 1.222-7.792.394-11.266-1.008z" transform="translate(-.47 -.087)" style="fill:#575656"/>
</svg>
